<mxfile host="65bd71144e">
    <diagram id="yAGblul80aGBsqI3h5iG" name="Страница 1">
        <mxGraphModel dx="1112" dy="523" grid="1" gridSize="10" guides="1" tooltips="1" connect="1" arrows="1" fold="1" page="1" pageScale="1" pageWidth="827" pageHeight="1169" math="0" shadow="0">
            <root>
                <mxCell id="0"/>
                <mxCell id="1" parent="0"/>
                <mxCell id="2" style="edgeStyle=none;html=1;entryX=0.5;entryY=0;entryDx=0;entryDy=0;" edge="1" parent="1" source="wZigqJ7XrzioZWn9Ze9V-1" target="wZigqJ7XrzioZWn9Ze9V-2">
                    <mxGeometry relative="1" as="geometry"/>
                </mxCell>
                <mxCell id="wZigqJ7XrzioZWn9Ze9V-1" value="SecondArray" style="rounded=1;whiteSpace=wrap;html=1;" parent="1" vertex="1">
                    <mxGeometry x="354" y="40" width="120" height="60" as="geometry"/>
                </mxCell>
                <mxCell id="3" style="edgeStyle=none;html=1;entryX=0.5;entryY=0;entryDx=0;entryDy=0;" edge="1" parent="1" source="wZigqJ7XrzioZWn9Ze9V-2" target="wZigqJ7XrzioZWn9Ze9V-3">
                    <mxGeometry relative="1" as="geometry"/>
                </mxCell>
                <mxCell id="wZigqJ7XrzioZWn9Ze9V-2" value="string[] arrayFirst&lt;br&gt;string[] arraySecond&lt;br&gt;int count = 0" style="shape=parallelogram;perimeter=parallelogramPerimeter;whiteSpace=wrap;html=1;fixedSize=1;" parent="1" vertex="1">
                    <mxGeometry x="331" y="170" width="166" height="60" as="geometry"/>
                </mxCell>
                <mxCell id="wZigqJ7XrzioZWn9Ze9V-8" style="edgeStyle=orthogonalEdgeStyle;rounded=0;orthogonalLoop=1;jettySize=auto;html=1;entryX=0;entryY=0.5;entryDx=0;entryDy=0;" parent="1" source="wZigqJ7XrzioZWn9Ze9V-3" target="wZigqJ7XrzioZWn9Ze9V-7" edge="1">
                    <mxGeometry relative="1" as="geometry"/>
                </mxCell>
                <mxCell id="wZigqJ7XrzioZWn9Ze9V-3" value="for (int i = 0; i &amp;lt; arrayFirst.length; i++)" style="shape=hexagon;perimeter=hexagonPerimeter2;whiteSpace=wrap;html=1;fixedSize=1;" parent="1" vertex="1">
                    <mxGeometry x="306" y="300" width="216" height="80" as="geometry"/>
                </mxCell>
                <mxCell id="wZigqJ7XrzioZWn9Ze9V-9" style="edgeStyle=orthogonalEdgeStyle;rounded=0;orthogonalLoop=1;jettySize=auto;html=1;entryX=0.5;entryY=1;entryDx=0;entryDy=0;" parent="1" source="wZigqJ7XrzioZWn9Ze9V-7" target="wZigqJ7XrzioZWn9Ze9V-3" edge="1">
                    <mxGeometry relative="1" as="geometry">
                        <Array as="points">
                            <mxPoint x="705" y="440"/>
                            <mxPoint x="414" y="440"/>
                        </Array>
                    </mxGeometry>
                </mxCell>
                <mxCell id="wZigqJ7XrzioZWn9Ze9V-10" value="&lt;font style=&quot;font-size: 14px;&quot;&gt;No&lt;/font&gt;" style="edgeLabel;html=1;align=center;verticalAlign=middle;resizable=0;points=[];" parent="wZigqJ7XrzioZWn9Ze9V-9" vertex="1" connectable="0">
                    <mxGeometry x="-0.0795" y="1" relative="1" as="geometry">
                        <mxPoint x="-16" as="offset"/>
                    </mxGeometry>
                </mxCell>
                <mxCell id="wZigqJ7XrzioZWn9Ze9V-12" style="edgeStyle=orthogonalEdgeStyle;rounded=0;orthogonalLoop=1;jettySize=auto;html=1;entryX=0.999;entryY=0.639;entryDx=0;entryDy=0;entryPerimeter=0;fontSize=14;" parent="1" source="wZigqJ7XrzioZWn9Ze9V-7" target="wZigqJ7XrzioZWn9Ze9V-11" edge="1">
                    <mxGeometry relative="1" as="geometry">
                        <Array as="points">
                            <mxPoint x="810" y="578"/>
                        </Array>
                    </mxGeometry>
                </mxCell>
                <mxCell id="wZigqJ7XrzioZWn9Ze9V-13" value="Yes" style="edgeLabel;html=1;align=center;verticalAlign=middle;resizable=0;points=[];fontSize=14;" parent="wZigqJ7XrzioZWn9Ze9V-12" vertex="1" connectable="0">
                    <mxGeometry x="0.3805" y="1" relative="1" as="geometry">
                        <mxPoint as="offset"/>
                    </mxGeometry>
                </mxCell>
                <mxCell id="wZigqJ7XrzioZWn9Ze9V-7" value="if (arrayFirst[i].length &amp;lt;= 3)" style="rhombus;whiteSpace=wrap;html=1;" parent="1" vertex="1">
                    <mxGeometry x="600" y="300" width="210" height="80" as="geometry"/>
                </mxCell>
                <mxCell id="wZigqJ7XrzioZWn9Ze9V-14" style="edgeStyle=orthogonalEdgeStyle;rounded=0;orthogonalLoop=1;jettySize=auto;html=1;entryX=0;entryY=0.5;entryDx=0;entryDy=0;fontSize=14;" parent="1" source="wZigqJ7XrzioZWn9Ze9V-11" target="wZigqJ7XrzioZWn9Ze9V-3" edge="1">
                    <mxGeometry relative="1" as="geometry">
                        <Array as="points">
                            <mxPoint x="240" y="570"/>
                            <mxPoint x="240" y="340"/>
                        </Array>
                    </mxGeometry>
                </mxCell>
                <mxCell id="wZigqJ7XrzioZWn9Ze9V-11" value="arraySecond[count] = arrayFirst[i]&lt;br&gt;count++;" style="rounded=0;whiteSpace=wrap;html=1;fontSize=14;" parent="1" vertex="1">
                    <mxGeometry x="301" y="540" width="226" height="60" as="geometry"/>
                </mxCell>
            </root>
        </mxGraphModel>
    </diagram>
</mxfile>